<svg xmlns="http://www.w3.org/2000/svg" viewBox="0 0 128 128">
  <defs>
    <linearGradient id="g" x1="0" y1="0" x2="1" y2="1">
      <stop stop-color="#4f8cff"/>
      <stop offset="0.55" stop-color="#e85a2a"/>
      <stop offset="1" stop-color="#c41e3a"/>
    </linearGradient>
    <linearGradient id="paint" x1="0.2" y1="0" x2="0.8" y2="1">
      <stop stop-color="#ffffff"/>
      <stop offset="0.35" stop-color="#4f8cff"/>
      <stop offset="0.65" stop-color="#e63946"/>
      <stop offset="1" stop-color="#ffffff"/>
    </linearGradient>
  </defs>
  <rect width="128" height="128" rx="28" fill="#0a0f1a"/>
  <rect x="8" y="8" width="112" height="112" rx="24" fill="url(#g)"/>
  <!-- speech bubble -->
  <path d="M28 32h72a10 10 0 0 1 10 10v36a10 10 0 0 1-10 10H58l-18 18V88h-2a10 10 0 0 1-10-10V42a10 10 0 0 1 10-10z" fill="#fff"/>
  <!-- melting paint lines inside bubble -->
  <path d="M42 48c8 2 16-4 24 0s14 8 22 4" fill="none" stroke="#2a5bbf" stroke-width="5" stroke-linecap="round"/>
  <path d="M40 62c10 0 18 6 28 2s16-2 24 4" fill="none" stroke="#e63946" stroke-width="5" stroke-linecap="round"/>
  <path d="M44 76c6-2 14 2 20 0s12-4 18 0" fill="none" stroke="#4f8cff" stroke-width="4.5" stroke-linecap="round"/>
</svg>
